<mxfile host="app.diagrams.net" modified="2023-09-14T06:32:27.001Z" agent="Mozilla/5.0 (Macintosh; Intel Mac OS X 10_15_7) AppleWebKit/537.36 (KHTML, like Gecko) Chrome/116.0.0.0 Safari/537.36" version="21.6.8" etag="u4DpH0FX2a_0cUH8tjo6" type="github">
  <diagram name="Side-1" id="Mbxeej78QvSqRiWuFZW1">
    <mxGraphModel>
      <root>
        <mxCell id="0" />
        <mxCell id="1" parent="0" />
      </root>
    </mxGraphModel>
  </diagram>
</mxfile>
